<svg xmlns="http://www.w3.org/2000/svg" width="600" height="321.708" viewBox="0 0 600 321.708"><path d="M348.066 191.544H143.12a2.142 2.142 0 1 1 0-4.284h201.963l18.883-51.108a2.142 2.142 0 0 1 4.017 1.484l-19.917 53.908zM146.768 174.962a2.142 2.142 0 0 1-2.013-2.874l7.627-20.975a2.142 2.142 0 0 1 2.013-1.41h36.314a2.14 2.14 0 0 1 2.028 2.831l-3.565 10.488a2.142 2.142 0 0 1-4.056-1.379l2.603-7.657h-31.824l-7.114 19.566a2.142 2.142 0 0 1-2.013 1.41z" fill="#004d7d"/><path d="M177.94 191.544a2.142 2.142 0 0 1-2.007-2.887l3.565-9.617a2.141 2.141 0 1 1 4.016 1.489l-3.565 9.617a2.143 2.143 0 0 1-2.009 1.398zM193.361 163.217a2.142 2.142 0 0 1-1.998-2.913l18.24-47.284a2.142 2.142 0 0 1 1.998-1.371h35.153a2.142 2.142 0 0 1 2.02 2.854l-12.27 34.82a2.143 2.143 0 0 1-4.04-1.423l11.264-31.968h-30.657l-17.711 45.914a2.143 2.143 0 0 1-1.999 1.371zM240.619 149.261a2.142 2.142 0 0 1-2.013-2.873l25.7-70.803a2.142 2.142 0 0 1 2.014-1.41h35.982a2.142 2.142 0 0 1 2.016 2.865l-20.064 55.88a2.142 2.142 0 0 1-4.032-1.447l19.035-53.015h-31.436l-25.189 69.392a2.143 2.143 0 0 1-2.013 1.411zM289.368 131.52a2.142 2.142 0 0 1-2.013-2.874l32.666-89.872a2.141 2.141 0 0 1 2.013-1.41h36.976a2.143 2.143 0 0 1 2.007 2.89l-25.038 67.155a2.142 2.142 0 1 1-4.014-1.497l23.96-64.265h-32.391l-32.153 88.462a2.142 2.142 0 0 1-2.013 1.41zM341.434 105.486a2.141 2.141 0 0 1-2.014-2.87L376.01 1.413A2.14 2.14 0 0 1 378.024 0h36.257a2.143 2.143 0 0 1 2.02 2.857l-23.657 66.768a2.143 2.143 0 0 1-4.037-1.43L411.25 4.284h-31.723l-36.079 99.788a2.141 2.141 0 0 1-2.014 1.414zM182.998 191.544a2.141 2.141 0 0 1-2.002-2.903l3.814-10.032a2.143 2.143 0 0 1 4.004 1.522L185 190.163a2.142 2.142 0 0 1-2.002 1.381zM219.228 191.544a2.142 2.142 0 0 1-2.005-2.894l6.218-16.582a2.142 2.142 0 0 1 4.01 1.504l-6.217 16.582a2.143 2.143 0 0 1-2.006 1.39zM224.286 191.544a2.142 2.142 0 0 1-2.008-2.886l6.88-18.572a2.142 2.142 0 1 1 4.018 1.489l-6.882 18.571a2.142 2.142 0 0 1-2.008 1.398zM267.038 191.544a2.141 2.141 0 0 1-2.006-2.891l10.28-27.525a2.141 2.141 0 1 1 4.012 1.498l-10.28 27.525a2.142 2.142 0 0 1-2.006 1.393zM261.29 191.544a2.141 2.141 0 0 1-2-2.906l10.17-26.64a2.141 2.141 0 1 1 4.001 1.527l-10.17 26.64a2.142 2.142 0 0 1-2.001 1.379zM304.292 191.544a2.142 2.142 0 0 1-2.015-2.87l12.933-35.816a2.142 2.142 0 0 1 4.03 1.455l-12.934 35.816a2.143 2.143 0 0 1-2.014 1.415zM309.183 191.544a2.141 2.141 0 0 1-2.004-2.897l14.121-37.475a2.141 2.141 0 1 1 4.01 1.51l-14.123 37.475a2.142 2.142 0 0 1-2.004 1.387z" fill="#004d7d"/><path d="M104.652 190.469a2.142 2.142 0 0 1-.4-4.246 1149.149 1149.149 0 0 0 29.409-6.038l.137-.033a5.19 5.19 0 0 1 .23-.049c4.544-1.062 9.123-2.1 13.996-3.172l.226-.05a1119.79 1119.79 0 0 0 34.507-8.615c33.077-8.797 70.565-18.768 108.09-34.886 45.406-19.511 88.42-47.27 127.887-82.525l-7.244-5.938a2.141 2.141 0 0 1 .822-3.73l78.817-20.339a2.143 2.143 0 0 1 2.396 3.135l-44.437 77.934a2.14 2.14 0 0 1-3.962-.645l-1.92-9.707-43.02 24.097a2.45 2.45 0 0 1-.113.06c-31.741 15.356-64.452 27.564-97.224 36.285-27.894 7.428-49.792 10.836-75.149 14.782-21.629 3.366-46.144 7.181-78.526 14.275l-.224.05a1180 1180 0 0 1-14.024 3.178 2.199 2.199 0 0 1-.114.022c-.045.008-.09.021-.137.033l-.132.029a1148.36 1148.36 0 0 1-29.485 6.054 2.136 2.136 0 0 1-.406.039zM417.47 44.279l5.912 4.846a2.14 2.14 0 0 1 .076 3.247c-40.32 36.361-84.369 64.94-130.92 84.944-27.856 11.965-55.626 20.55-81.597 27.775 5.577-.896 10.923-1.728 16.102-2.535 25.236-3.927 47.03-7.319 74.705-14.688 32.49-8.646 64.923-20.75 96.403-35.975l45.538-25.507a2.142 2.142 0 0 1 3.148 1.453l1.377 6.964 39.082-68.542-69.826 18.019zM.008 90.424H226.58v4.284H.008zM487.159 90.422h110.833v4.284H487.159zM.008 317.424h597.983v4.284H.008zM0 214.034h6v21.556h10.581v5.053H0v-26.609zM28.545 221.338l2.882 9.514c.316 1.106.71 2.566.947 3.593h.158c.237-1.066.553-2.487.83-3.632l2.407-9.475h6.396l-4.5 12.712c-2.764 7.698-4.62 10.738-6.79 12.673-2.054 1.816-4.265 2.487-5.765 2.645l-1.302-5.054c.75-.158 1.697-.513 2.605-1.026.908-.474 1.935-1.46 2.487-2.408.198-.316.316-.632.316-.869s-.04-.513-.237-.987l-7.106-17.686h6.672zM64.117 240.13c-1.066.513-3.08.908-5.37.908-6.237 0-10.224-3.83-10.224-9.87 0-5.645 3.869-10.265 11.054-10.265 1.579 0 3.316.277 4.58.75l-.948 4.462c-.71-.316-1.776-.592-3.356-.592-3.158 0-5.21 2.25-5.171 5.408 0 3.514 2.368 5.409 5.29 5.409 1.421 0 2.526-.237 3.435-.632l.71 4.422zM77.147 232.905c.158 2.487 2.645 3.672 5.448 3.672 2.053 0 3.711-.277 5.33-.83l.79 4.067c-1.974.829-4.383 1.224-6.988 1.224-6.554 0-10.304-3.79-10.304-9.83 0-4.896 3.04-10.305 9.751-10.305 6.238 0 8.606 4.857 8.606 9.633 0 1.027-.118 1.935-.197 2.369H77.147zm7.067-4.105c0-1.461-.632-3.91-3.395-3.91-2.527 0-3.553 2.33-3.711 3.91h7.106zm3.277-15.87l-4.817 6h-4.106l3.395-6h5.528zM103.521 232.905c.158 2.487 2.645 3.672 5.448 3.672 2.053 0 3.711-.277 5.33-.83l.79 4.067c-1.974.829-4.383 1.224-6.988 1.224-6.554 0-10.304-3.79-10.304-9.83 0-4.896 3.04-10.305 9.751-10.305 6.238 0 8.606 4.857 8.606 9.633 0 1.027-.118 1.935-.197 2.369h-12.436zm7.067-4.105c0-1.461-.632-3.91-3.395-3.91-2.527 0-3.553 2.33-3.711 3.91h7.106zM143.398 232.905c.158 2.487 2.645 3.672 5.448 3.672 2.053 0 3.711-.277 5.33-.83l.79 4.067c-1.975.829-4.383 1.224-6.989 1.224-6.553 0-10.304-3.79-10.304-9.83 0-4.896 3.04-10.305 9.752-10.305 6.237 0 8.606 4.857 8.606 9.633 0 1.027-.118 1.935-.197 2.369h-12.436zm7.067-4.105c0-1.461-.632-3.91-3.395-3.91-2.527 0-3.554 2.33-3.712 3.91h7.107zM171.864 216.127v5.211h4.303v4.422h-4.303v6.987c0 2.33.592 3.395 2.369 3.395.829 0 1.224-.039 1.776-.157l.04 4.54c-.75.276-2.211.513-3.869.513-1.934 0-3.553-.672-4.54-1.658-1.105-1.145-1.658-3-1.658-5.725v-7.895h-2.566v-4.422h2.566v-3.593l5.882-1.618zM204.91 214.034v26.609h-6v-26.609h6zM215.57 227.497c0-2.409-.08-4.422-.158-6.159h5.211l.276 2.684h.12c.788-1.263 2.723-3.119 5.96-3.119 3.948 0 6.909 2.646 6.909 8.33v11.41h-6v-10.699c0-2.487-.87-4.184-3.04-4.184-1.659 0-2.646 1.145-3.08 2.25-.158.395-.197.947-.197 1.5v11.133h-6.001v-13.146zM244.194 235.432c1.106.671 3.395 1.421 5.172 1.421 1.816 0 2.566-.592 2.566-1.58 0-1.026-.592-1.5-2.803-2.25-4.027-1.342-5.566-3.513-5.527-5.803 0-3.632 3.08-6.356 7.856-6.356 2.25 0 4.225.553 5.409 1.145l-1.027 4.145c-.868-.473-2.566-1.105-4.184-1.105-1.461 0-2.29.592-2.29 1.54 0 .947.75 1.42 3.119 2.25 3.671 1.263 5.171 3.158 5.211 5.96 0 3.633-2.803 6.278-8.33 6.278-2.527 0-4.777-.592-6.238-1.382l1.066-4.263zM273.607 216.127v5.211h4.304v4.422h-4.304v6.987c0 2.33.592 3.395 2.369 3.395.83 0 1.224-.039 1.777-.157l.039 4.54c-.75.276-2.21.513-3.869.513-1.934 0-3.553-.672-4.54-1.658-1.105-1.145-1.658-3-1.658-5.725v-7.895h-2.566v-4.422h2.566v-3.593l5.882-1.618zM293.111 215.969c0 1.658-1.224 3-3.237 3-1.895 0-3.119-1.342-3.119-3 0-1.697 1.263-3 3.198-3 1.934 0 3.119 1.303 3.158 3zm-6.198 24.674v-19.305h6v19.305h-6zM309.97 216.127v5.211h4.302v4.422h-4.302v6.987c0 2.33.591 3.395 2.368 3.395.83 0 1.224-.039 1.777-.157l.039 4.54c-.75.276-2.21.513-3.869.513-1.934 0-3.553-.672-4.54-1.658-1.105-1.145-1.658-3-1.658-5.725v-7.895h-2.566v-4.422h2.566v-3.593l5.883-1.618zM341.474 234.445c0 2.526.08 4.58.159 6.198h-5.212l-.276-2.724h-.119c-.75 1.184-2.566 3.158-6.04 3.158-3.947 0-6.79-2.447-6.79-8.409v-11.33h6v10.383c0 2.803.909 4.5 3.04 4.5 1.659 0 2.646-1.145 3.001-2.092.158-.355.237-.79.237-1.303v-11.488h6v13.107zM358.532 216.127v5.211h4.303v4.422h-4.303v6.987c0 2.33.591 3.395 2.368 3.395.83 0 1.224-.039 1.776-.157l.04 4.54c-.75.276-2.21.513-3.869.513-1.934 0-3.553-.672-4.54-1.658-1.105-1.145-1.658-3-1.658-5.725v-7.895h-2.566v-4.422h2.566v-3.593l5.883-1.618zM385.735 234.445c1.578.829 4.105 1.658 6.671 1.658 2.763 0 4.224-1.145 4.224-2.882 0-1.658-1.263-2.605-4.46-3.711-4.422-1.58-7.344-4.027-7.344-7.896 0-4.54 3.83-7.974 10.067-7.974 3.04 0 5.212.592 6.79 1.342l-1.342 4.816c-1.026-.513-2.96-1.263-5.526-1.263-2.606 0-3.87 1.224-3.87 2.566 0 1.697 1.461 2.448 4.936 3.75 4.697 1.737 6.868 4.185 6.868 7.936 0 4.46-3.395 8.25-10.698 8.25-3.04 0-6.04-.828-7.54-1.657l1.224-4.935zM430.387 234.445c0 2.526.079 4.58.158 6.198h-5.212l-.276-2.724h-.119c-.75 1.184-2.566 3.158-6.04 3.158-3.947 0-6.79-2.447-6.79-8.409v-11.33h6.001v10.383c0 2.803.908 4.5 3.04 4.5 1.658 0 2.645-1.145 3-2.092.158-.355.237-.79.237-1.303v-11.488h6v13.107zM440.732 227.812c0-2.526-.078-4.658-.157-6.474h5.21l.277 2.684h.08c1.42-2.013 3.63-3.119 6.435-3.119 4.224 0 8.014 3.672 8.014 9.83 0 7.028-4.461 10.344-8.765 10.344-2.33 0-4.145-.947-5.014-2.21h-.079v9.593h-6v-20.648zm6.001 4.54c0 .474.04.87.118 1.264.395 1.619 1.777 2.842 3.514 2.842 2.606 0 4.146-2.17 4.146-5.448 0-3.08-1.382-5.408-4.066-5.408-1.698 0-3.199 1.263-3.594 3.04a4.66 4.66 0 0 0-.118 1.065v2.645zM474.607 232.905c.158 2.487 2.645 3.672 5.448 3.672 2.053 0 3.711-.277 5.33-.83l.789 4.067c-1.974.829-4.382 1.224-6.988 1.224-6.553 0-10.304-3.79-10.304-9.83 0-4.896 3.04-10.305 9.751-10.305 6.238 0 8.607 4.857 8.607 9.633a14.19 14.19 0 0 1-.198 2.369h-12.435zm7.067-4.105c0-1.461-.632-3.91-3.395-3.91-2.527 0-3.554 2.33-3.712 3.91h7.107zm3.276-15.87l-4.816 6h-4.106l3.395-6h5.527zM496.362 227.694c0-2.842-.04-4.698-.158-6.356h5.132l.237 3.553h.158c.987-2.843 3.316-4.027 5.211-4.027.553 0 .83.04 1.264.119v5.645c-.475-.079-.948-.158-1.62-.158-2.21 0-3.71 1.185-4.105 3.04a7.104 7.104 0 0 0-.118 1.342v9.79h-6.001v-12.948zM523.09 215.969c0 1.658-1.224 3-3.238 3-1.894 0-3.118-1.342-3.118-3 0-1.697 1.264-3 3.198-3s3.119 1.303 3.158 3zm-6.198 24.674v-19.305h6v19.305h-6zM537.856 232.905c.158 2.487 2.645 3.672 5.448 3.672 2.053 0 3.711-.277 5.33-.83l.79 4.067c-1.974.829-4.382 1.224-6.988 1.224-6.554 0-10.304-3.79-10.304-9.83 0-4.896 3.04-10.305 9.75-10.305 6.239 0 8.607 4.857 8.607 9.633 0 1.027-.118 1.935-.197 2.369h-12.436zm7.067-4.105c0-1.461-.632-3.91-3.395-3.91-2.527 0-3.553 2.33-3.711 3.91h7.106zM577.81 234.445c0 2.526.08 4.58.159 6.198h-5.211l-.276-2.724h-.12c-.75 1.184-2.565 3.158-6.04 3.158-3.947 0-6.79-2.447-6.79-8.409v-11.33h6.001v10.383c0 2.803.908 4.5 3.04 4.5 1.658 0 2.645-1.145 3-2.092.158-.355.237-.79.237-1.303v-11.488h6v13.107zM588.156 227.694c0-2.842-.04-4.698-.157-6.356h5.131l.237 3.553h.158c.988-2.843 3.317-4.027 5.212-4.027.552 0 .829.04 1.263.119v5.645c-.474-.079-.948-.158-1.619-.158-2.211 0-3.711 1.185-4.105 3.04-.08.395-.119.868-.119 1.342v9.79h-6.001v-12.948zM182.67 282.881c0-2.115.402-4.104 1.208-5.968.806-1.863 1.89-3.488 3.249-4.873a15.208 15.208 0 0 1 4.797-3.287c1.838-.805 3.816-1.209 5.931-1.209 1.511 0 2.946.215 4.306.642 1.36.43 2.594 1.02 3.702 1.776a14.477 14.477 0 0 1 2.909 2.606 11.74 11.74 0 0 1 1.926 3.136c0-1.259.025-2.518.076-3.778a83.65 83.65 0 0 1 .226-3.701h2.267v29.237h-2.569v-7.48c-.857 2.217-2.417 4.106-4.684 5.667-2.266 1.561-4.986 2.342-8.159 2.342-2.166 0-4.168-.404-6.006-1.209-1.84-.805-3.438-1.889-4.798-3.249a14.988 14.988 0 0 1-3.21-4.797c-.782-1.838-1.171-3.79-1.171-5.855zm2.568-.076c0 1.764.327 3.413.983 4.949a12.548 12.548 0 0 0 2.681 4.004c1.134 1.133 2.48 2.028 4.042 2.682 1.56.655 3.223.982 4.986.982a12.76 12.76 0 0 0 4.987-.982 12.911 12.911 0 0 0 4.08-2.682 12.274 12.274 0 0 0 2.72-4.004c.653-1.536.981-3.185.981-4.949 0-1.762-.328-3.424-.982-4.986-.655-1.56-1.562-2.909-2.72-4.042a12.933 12.933 0 0 0-4.08-2.682 12.774 12.774 0 0 0-4.986-.982c-1.763 0-3.425.328-4.986.982-1.561.656-2.908 1.55-4.042 2.682-1.133 1.133-2.028 2.482-2.681 4.042a12.76 12.76 0 0 0-.983 4.986zM222.937 258.025c0-.654.226-1.208.68-1.662.453-.453.981-.68 1.586-.68.554 0 1.057.227 1.51.68.454.454.681 1.008.681 1.662 0 .656-.227 1.197-.68 1.625-.454.428-.957.642-1.511.642a2.236 2.236 0 0 1-1.587-.642c-.453-.428-.68-.97-.68-1.625zm3.475 39.437h-2.569v-29.237h2.569v29.237zM236.988 268.225h2.191c0 .201.012.68.038 1.435.025.755.038 1.562.038 2.418 0 .856.011 1.65.038 2.38.024.73.037 1.17.037 1.321 1.058-2.417 2.694-4.382 4.91-5.892 2.217-1.511 4.785-2.267 7.707-2.267 2.82 0 5.049.806 6.686 2.418 1.636 1.612 2.505 3.702 2.607 6.27v21.154h-2.645v-20.7c-.101-1.763-.73-3.274-1.889-4.533-1.159-1.259-2.846-1.939-5.061-2.04-1.662 0-3.224.277-4.684.83-1.462.555-2.733 1.31-3.816 2.267a10.858 10.858 0 0 0-2.606 3.476 9.961 9.961 0 0 0-.982 4.381v16.319h-2.569v-29.237zM273.78 255.381h2.644v13.297h9.217v2.342h-9.217v26.442h-2.645V271.02h-6.421v-2.342h6.421V255.38zM370.294 293.911c-1.36 1.26-2.96 2.255-4.797 2.984-1.84.73-3.791 1.096-5.856 1.096-2.115 0-4.105-.404-5.968-1.209-1.864-.805-3.488-1.889-4.873-3.249a14.684 14.684 0 0 1-3.249-4.797c-.781-1.838-1.17-3.815-1.17-5.93s.402-4.105 1.208-5.97c.806-1.862 1.89-3.486 3.249-4.872a15.22 15.22 0 0 1 4.797-3.286c1.838-.805 3.816-1.209 5.93-1.209 3.223 0 5.981.944 8.273 2.833 2.292 1.889 3.992 4.295 5.1 7.215a478 478 0 0 0-5.893 2.342c-2.116.857-4.282 1.737-6.497 2.644a4090.33 4090.33 0 0 1-6.573 2.682c-2.166.882-4.205 1.7-6.12 2.456.957 2.317 2.481 4.192 4.572 5.628 2.089 1.435 4.468 2.153 7.139 2.153 1.712 0 3.324-.302 4.835-.907 1.51-.604 2.82-1.435 3.928-2.492l1.965 1.888zm-.68-17.15c-.906-2.013-2.23-3.626-3.967-4.835-1.737-1.208-3.765-1.813-6.081-1.813-1.764 0-3.413.34-4.949 1.02a13.091 13.091 0 0 0-4.004 2.72 12.55 12.55 0 0 0-2.681 4.004 12.297 12.297 0 0 0-.983 4.873c0 .555.038 1.084.113 1.586.076.504.163 1.008.265 1.511a1517.448 1517.448 0 0 1 11.22-4.57c1.937-.78 3.852-1.55 5.74-2.305a274.61 274.61 0 0 0 5.327-2.19zM379.963 268.225h2.191c0 .201.012.68.038 1.435.025.755.037 1.562.037 2.418 0 .856.012 1.65.039 2.38.024.73.037 1.17.037 1.321 1.058-2.417 2.694-4.382 4.91-5.892 2.217-1.511 4.785-2.267 7.707-2.267 2.82 0 5.049.806 6.686 2.418 1.636 1.612 2.505 3.702 2.606 6.27v21.154h-2.644v-20.7c-.102-1.763-.73-3.274-1.889-4.533-1.16-1.259-2.846-1.939-5.061-2.04-1.663 0-3.225.277-4.685.83-1.461.555-2.732 1.31-3.815 2.267a10.852 10.852 0 0 0-2.606 3.476 9.956 9.956 0 0 0-.982 4.381v16.319h-2.57v-29.237zM413.581 258.025c0-.654.227-1.208.68-1.662.454-.453.983-.68 1.587-.68.553 0 1.057.227 1.51.68.454.454.68 1.008.68 1.662 0 .656-.226 1.197-.68 1.625-.453.428-.957.642-1.51.642a2.236 2.236 0 0 1-1.587-.642c-.453-.428-.68-.97-.68-1.625zm3.476 39.437h-2.569v-29.237h2.569v29.237zM442.365 271.095l-1.51 1.813c-.605-.755-1.537-1.371-2.797-1.85-1.259-.478-2.442-.718-3.55-.718a7.69 7.69 0 0 0-1.926.264 5.45 5.45 0 0 0-1.852.87 5.18 5.18 0 0 0-1.397 1.548c-.378.63-.567 1.397-.567 2.304 0 1.26.365 2.267 1.096 3.022.73.756 1.636 1.398 2.72 1.927a28.75 28.75 0 0 0 3.55 1.435c1.285.429 2.468.944 3.551 1.549a8.54 8.54 0 0 1 2.72 2.38c.73.982 1.095 2.254 1.095 3.815 0 1.159-.201 2.254-.604 3.286a7.963 7.963 0 0 1-1.814 2.757c-.805.807-1.775 1.436-2.908 1.89-1.133.453-2.455.68-3.966.68-1.562 0-3.2-.278-4.911-.832-1.713-.553-3.123-1.485-4.23-2.795.302-.302.641-.667 1.02-1.096.377-.427.615-.691.717-.793.251.353.654.706 1.209 1.058.553.353 1.196.668 1.926.944.73.278 1.474.504 2.23.68.755.177 1.459.264 2.114.264.605 0 1.284-.1 2.04-.302a7.19 7.19 0 0 0 2.153-.982c.68-.453 1.259-1.057 1.738-1.813.478-.755.718-1.662.718-2.72 0-1.309-.367-2.353-1.095-3.135-.732-.78-1.651-1.422-2.758-1.926a32.917 32.917 0 0 0-3.551-1.36 18.635 18.635 0 0 1-3.551-1.55 8.794 8.794 0 0 1-2.758-2.417c-.73-.982-1.095-2.278-1.095-3.89 0-1.31.251-2.443.756-3.4.503-.956 1.144-1.75 1.927-2.38a7.837 7.837 0 0 1 2.643-1.397 10.083 10.083 0 0 1 2.984-.454c1.21 0 2.556.253 4.042.756 1.485.504 2.783 1.36 3.891 2.568zM304.945 254.242h9.415c4.36 0 8.049.663 11.065 1.987 3.015 1.324 5.471 3.036 7.366 5.135 1.895 2.099 3.27 4.442 4.126 7.03.856 2.588 1.284 5.125 1.284 7.61 0 3.302-.58 6.267-1.742 8.895s-2.73 4.881-4.707 6.755c-1.978 1.875-4.29 3.312-6.939 4.31-2.65 1-5.44 1.498-8.375 1.498h-11.493v-43.22zm11.493 40.774c2.65 0 5.145-.437 7.489-1.314 2.343-.875 4.38-2.14 6.113-3.79 1.732-1.65 3.108-3.657 4.127-6.022 1.018-2.363 1.528-5.032 1.528-8.008a20.57 20.57 0 0 0-1.253-7.06 17.652 17.652 0 0 0-3.791-6.144c-1.692-1.793-3.82-3.23-6.388-4.31-2.567-1.079-5.563-1.62-8.986-1.62h-7.825v38.268h8.986zM174.957 256.381l-.917 2.018c-1.264-.53-2.781-1.009-4.554-1.437a22.226 22.226 0 0 0-5.227-.642c-1.55 0-2.955.214-4.218.642-1.264.428-2.334 1-3.21 1.712a7.407 7.407 0 0 0-2.017 2.506 6.922 6.922 0 0 0-.703 3.087c0 1.305.326 2.406.978 3.302.651.897 1.518 1.671 2.598 2.323 1.08.652 2.302 1.233 3.668 1.742 1.365.51 2.771 1.03 4.218 1.558a43.342 43.342 0 0 1 4.218 1.804 16.495 16.495 0 0 1 3.668 2.445c1.08.958 1.946 2.1 2.599 3.424.65 1.325.978 2.944.978 4.86 0 1.875-.337 3.566-1.01 5.074a10.596 10.596 0 0 1-2.903 3.851c-1.264 1.06-2.772 1.875-4.524 2.445-1.752.57-3.709.856-5.869.856-1.71 0-3.27-.163-4.676-.49s-2.66-.722-3.76-1.191a24.547 24.547 0 0 1-2.842-1.406 70.01 70.01 0 0 0-1.865-1.07l1.223-2.262c.651.45 1.437.908 2.354 1.376.917.469 1.895.897 2.934 1.283 1.04.388 2.129.703 3.27.948 1.14.244 2.282.367 3.424.367 1.303 0 2.648-.193 4.035-.581a12.431 12.431 0 0 0 3.79-1.773 9.642 9.642 0 0 0 2.812-3.057c.733-1.242 1.1-2.72 1.1-4.432 0-1.629-.327-3.015-.978-4.156a9.332 9.332 0 0 0-2.598-2.904 18.729 18.729 0 0 0-3.668-2.079 80.385 80.385 0 0 0-4.218-1.68 98.768 98.768 0 0 1-4.218-1.652c-1.366-.57-2.589-1.242-3.668-2.017-1.08-.774-1.947-1.69-2.598-2.75-.653-1.06-.978-2.364-.978-3.913a9.61 9.61 0 0 1 .886-4.066 10.086 10.086 0 0 1 2.507-3.362c1.079-.957 2.373-1.711 3.881-2.261 1.508-.55 3.18-.826 5.013-.826.937 0 1.926.072 2.965.214 1.04.143 2.068.327 3.087.55 1.019.225 1.966.48 2.843.764.876.286 1.599.572 2.17.856zM285.168 279.867H299v2.57h-13.832z" fill="#004d7d"/></svg>